HIERARCHY
ROOT Hips
{
	OFFSET 0.000000 0.000000 0.000000
	CHANNELS 6 Xposition Yposition Zposition Zrotation Yrotation Xrotation 
	JOINT LHipJoint
	{
		OFFSET 0.000000 0.000000 0.000000
		CHANNELS 3 Zrotation Yrotation Xrotation
		JOINT LeftUpLeg
		{
			OFFSET 1.363060 -1.794630 0.839290
			CHANNELS 3 Zrotation Yrotation Xrotation
			JOINT LeftLeg
			{
				OFFSET 2.448110 -6.726130 0.000000
				CHANNELS 3 Zrotation Yrotation Xrotation
				JOINT LeftFoot
				{
					OFFSET 2.562200 -7.039590 0.000000
					CHANNELS 3 Zrotation Yrotation Xrotation
					JOINT LeftToeBase
					{
						OFFSET 0.157640 -0.433110 2.322550
						CHANNELS 3 Zrotation Yrotation Xrotation
						End Site
						{
							OFFSET 0.000000 0.000000 0.000000
						}
					}
				}
			}
		}
	}
	JOINT RHipJoint
	{
		OFFSET 0.000000 0.000000 0.000000
		CHANNELS 3 Zrotation Yrotation Xrotation
		JOINT RightUpLeg
		{
			OFFSET -1.305520 -1.794630 0.839290
			CHANNELS 3 Zrotation Yrotation Xrotation
			JOINT RightLeg
			{
				OFFSET -2.542530 -6.985550 0.000000
				CHANNELS 3 Zrotation Yrotation Xrotation
				JOINT RightFoot
				{
					OFFSET -2.568260 -7.056230 0.000000
					CHANNELS 3 Zrotation Yrotation Xrotation
					JOINT RightToeBase
					{
						OFFSET -0.164730 -0.452590 2.363150
						CHANNELS 3 Zrotation Yrotation Xrotation
						End Site
						{
							OFFSET 0.000000 0.000000 0.000000
						}
					}
				}
			}
		}
	}
}
MOTION
Frames: 11
Frame Time: 0.008333
5.462236 17.920820 1.753467 86.431839 -89.341798 -46.822595 -11.319159 1.868798 1.427499 -7.497810 10.196520 -38.720238 -0.671462 0.922104 32.505196 2.324283 12.646490 32.696197 7.557800 -0.000000 -69.349400 11.582093 -2.059050 -0.654931 8.146258 -17.879492 -35.547905 2.226376 -2.192515 29.002090 0.019269 4.475780 24.146123 2.265700 0.000000 -87.423500
5.278164 18.099520 1.738915 98.090479 -89.419512 -58.396282 -11.315137 1.666808 1.316476 -7.651395 10.532112 -39.659924 -0.632655 0.967471 33.689769 2.414285 13.358038 32.972846 8.071800 -0.000000 -65.960500 11.500891 -2.018999 -0.643406 8.298026 -17.833784 -36.760842 2.184708 -2.356791 30.473333 -0.071082 3.618468 23.817195 1.813600 0.000000 -86.395601
5.101151 18.265514 1.723553 110.599368 -89.385169 -70.676479 -11.316156 1.451271 1.210944 -7.916351 10.678919 -40.954349 -0.600034 1.059609 35.257924 2.482096 14.046244 32.360473 8.442000 -0.000000 -63.177500 11.379029 -1.945196 -0.611835 8.436570 -17.616758 -38.281397 2.149293 -2.540298 32.165742 -0.143422 2.666339 22.732912 1.269300 0.000000 -85.613899
4.940561 18.425828 1.694107 149.110588 -88.586912 -109.113280 -11.400396 1.213416 0.777663 -8.723032 11.546706 -41.928702 -0.638168 1.214329 36.809571 2.506301 14.595246 31.001152 8.578000 0.000000 -61.159000 11.186781 -1.791126 -0.498260 7.858154 -16.639324 -39.761421 2.032415 -2.739426 34.137897 -0.220048 1.773612 21.056887 0.767100 0.000000 -85.086899
4.776960 18.566666 1.677520 152.103941 -88.438879 -111.656329 -11.324983 1.044572 0.691498 -9.124351 11.324174 -43.763762 -0.625075 1.400792 38.851951 2.543901 15.102340 29.138302 8.595100 -0.000000 -59.699800 11.091350 -1.599678 -0.452404 7.957921 -16.176700 -41.705184 1.999940 -2.930879 35.966319 -0.254847 1.004190 19.028271 0.326500 -0.000000 -84.706500
4.618674 18.694987 1.660912 152.807117 -88.332188 -111.821212 -11.215354 0.878731 0.615019 -9.563072 10.916179 -45.782480 -0.605637 1.610684 40.980484 2.570148 15.469711 26.946397 8.442900 0.000000 -58.695600 11.016657 -1.379685 -0.394305 8.025577 -15.651953 -43.797660 1.985266 -3.132277 37.729477 -0.272833 0.444154 16.791893 0.013200 -0.000001 -84.251700
4.464787 18.811368 1.644700 151.799462 -88.265203 -110.207523 -11.083386 0.713916 0.548923 -10.017159 10.348084 -47.925387 -0.580098 1.834052 43.095104 2.588124 15.688753 24.625327 8.155600 0.000001 -58.039400 10.955377 -1.138306 -0.328550 8.054295 -15.094411 -45.985570 1.989611 -3.338286 39.348705 -0.274100 0.109590 14.523161 -0.174900 -0.000000 -83.895400
4.314304 18.916391 1.629221 149.514084 -88.229163 -107.264444 -10.938700 0.549834 0.495672 -10.468321 9.647235 -50.147757 -0.549869 2.061986 45.109276 2.599908 15.769526 22.365099 7.785600 -0.000000 -57.717400 10.900340 -0.881870 -0.256108 8.042729 -14.521198 -48.229716 2.011910 -3.543038 40.766478 -0.259221 -0.017092 12.363869 -0.261900 0.000000 -83.771200
4.165734 19.010393 1.614030 146.247921 -88.205582 -103.293777 -10.783730 0.391635 0.458377 -10.918311 8.841860 -52.421734 -0.517536 2.287102 46.955490 2.604808 15.726380 20.314081 7.384200 0.000000 -57.566400 10.851514 -0.614572 -0.170555 7.980061 -13.938457 -50.515295 2.049396 -3.743447 41.969889 -0.227672 0.041357 10.382761 -0.273700 -0.000000 -83.531000
4.018019 19.093814 1.599072 142.351712 -88.181746 -98.651685 -10.624372 0.240521 0.438517 -11.358964 7.959060 -54.728209 -0.485056 2.504672 48.588393 2.602170 15.579035 18.587950 6.997800 0.000000 -57.553800 10.803898 -0.342164 -0.067316 7.865581 -13.343858 -52.824660 2.098725 -3.934848 42.944411 -0.182552 0.234801 8.636601 -0.241400 -0.000000 -83.247800
3.870389 19.167016 1.584608 138.140929 -88.153222 -93.658447 -10.468309 0.094370 0.436711 -11.775423 7.021911 -57.056914 -0.453586 2.712135 49.983793 2.591229 15.346888 17.257543 6.659400 0.000001 -57.684800 10.749900 -0.072394 0.055882 7.707069 -12.732343 -55.142372 2.157274 -4.113039 43.684533 -0.128425 0.507677 7.155548 -0.190100 0.000000 -83.126100
